<?xml version="1.0" encoding="UTF-8"?>
<!DOCTYPE svg PUBLIC "-//W3C//DTD SVG 1.1//EN" "http://www.w3.org/Graphics/SVG/1.1/DTD/svg11.dtd">
<!-- Creator: CorelDRAW -->
<svg xmlns="http://www.w3.org/2000/svg" xml:space="preserve" width="6.82666in" height="6.82666in" style="shape-rendering:geometricPrecision; text-rendering:geometricPrecision; image-rendering:optimizeQuality; fill-rule:evenodd; clip-rule:evenodd"
viewBox="0 0 6.82666 6.82666"
 xmlns:xlink="http://www.w3.org/1999/xlink">
 <defs>
  <style type="text/css">
   <![CDATA[
    .fil1 {fill:none}
    .fil0 {fill:#212121;fill-rule:nonzero}
   ]]>
  </style>
 </defs>
 <g id="Layer_x0020_1">
  <metadata id="CorelCorpID_0Corel-Layer"/>
  <g id="_558160760">
   <path id="_558162008" class="fil0" d="M1.33333 0.853331l3.09333 0c0.0589094,0 0.106669,0.0477598 0.106669,0.106669l0 0.881591c0,0.0589094 -0.0477598,0.106669 -0.106669,0.106669 -0.00463386,0 -0.00920079,-0.000295276 -0.0136811,-0.000870079 -0.0126693,-0.000850394 -0.0229134,-0.00142913 -0.0305433,-0.00170079 -0.00598819,-0.000216535 -0.018185,-0.000330709 -0.0370827,-0.000330709 -0.287559,0 -0.54789,0.116551 -0.736323,0.30498 -0.188429,0.188433 -0.30498,0.448764 -0.30498,0.736323 0,0.287559 0.116551,0.54789 0.30498,0.736323 0.188433,0.188429 0.448764,0.30498 0.736323,0.30498 0.0188976,0 0.0310945,-0.000114173 0.0370827,-0.000330709 0.00884646,-0.000314961 0.0212047,-0.00103937 0.0367795,-0.00212992l-1.1811e-005 -0.000177165c0.0587638,-0.00411811 0.109744,0.040185 0.113862,0.0989488 0.000173228,0.00250394 0.000259843,0.00498819 0.000259843,0.00745669l3.93701e-006 0 0 0.000751969 0 1.73418c0,0.0589094 -0.0477598,0.106669 -0.106669,0.106669 -0.0349843,0 -0.0660315,-0.0168425 -0.0854843,-0.0428583l-1.46119 -1.76349 -1.46458 1.76759 -0.0820827 -0.0679173 0.0821378 0.0680551c-0.0375827,0.0453622 -0.104831,0.0516654 -0.150193,0.0140827 -0.0254409,-0.0210787 -0.0385945,-0.0514882 -0.0386102,-0.0821378l-3.93701e-006 0 0 -0.000267717 0 -4.90639c0,-0.0589094 0.0477598,-0.106669 0.106669,-0.106669zm2.98667 0.213339l-2.88 0 0 4.50427 1.35439 -1.6346c0.00498819,-0.00669685 0.0108386,-0.0129134 0.0175551,-0.0184764 0.0453622,-0.0375827 0.11261,-0.0312795 0.150193,0.0140827l-0.0821378 0.0680551 0.0820827 -0.0679173 1.35792 1.63885 0 -1.32991c-0.336374,-0.00667323 -0.640299,-0.145717 -0.861795,-0.367209 -0.227047,-0.227051 -0.367484,-0.540713 -0.367484,-0.887157 0,-0.346445 0.140437,-0.660106 0.367484,-0.887157 0.221496,-0.221492 0.525421,-0.360535 0.861795,-0.367209l0 -0.665626z"/>
   <path id="_558161792" class="fil0" d="M4.34536 1.73202c0.346445,0 0.660106,0.140437 0.887157,0.367484 0.227047,0.227051 0.367484,0.540713 0.367484,0.887157 0,0.346445 -0.140437,0.660106 -0.367484,0.887157 -0.227051,0.227047 -0.540713,0.367484 -0.887157,0.367484 -0.346445,0 -0.660106,-0.140437 -0.887157,-0.367484 -0.227047,-0.227051 -0.367484,-0.540713 -0.367484,-0.887157 0,-0.346445 0.140437,-0.660106 0.367484,-0.887157 0.227051,-0.227047 0.540713,-0.367484 0.887157,-0.367484zm0.736323 0.518319c-0.188433,-0.188429 -0.448764,-0.30498 -0.736323,-0.30498 -0.287559,0 -0.54789,0.116551 -0.736323,0.30498 -0.188429,0.188433 -0.30498,0.448764 -0.30498,0.736323 0,0.287559 0.116551,0.54789 0.30498,0.736323 0.188433,0.188429 0.448764,0.30498 0.736323,0.30498 0.287559,0 0.54789,-0.116551 0.736323,-0.30498 0.188429,-0.188433 0.30498,-0.448764 0.30498,-0.736323 0,-0.287559 -0.116551,-0.54789 -0.30498,-0.736323z"/>
   <polygon id="_558161024" class="fil0" points="4.48,2.24 4.48,3.73333 4.26667,3.73333 4.26667,2.24 "/>
   <polygon id="_558160880" class="fil0" points="3.62667,2.87999 5.12,2.87999 5.12,3.09333 3.62667,3.09333 "/>
  </g>
 </g>
 <rect class="fil1" width="6.82666" height="6.82666"/>
</svg>
